<svg width="144" height="28" viewBox="0 0 144 28" fill="none" xmlns="http://www.w3.org/2000/svg">
<mask id="mask0_628_2576" style="mask-type:luminance" maskUnits="userSpaceOnUse" x="0" y="0" width="143" height="24">
<path d="M142.486 0H0V23.96H142.486V0Z" fill="white"/>
</mask>
<g mask="url(#mask0_628_2576)">
<path d="M0.130859 8.04605C0.130859 3.70745 7.13454 0.175049 15.7443 0.175049C24.3541 0.175049 31.1979 3.62865 31.3508 7.90275V15.9707C31.1979 11.6966 24.2546 8.24305 15.7443 8.24305C7.23405 8.24305 0.130859 11.7755 0.130859 16.114V8.04605Z" fill="#F74F25"/>
<path d="M29.791 11.0448C30.0469 10.7438 30.2638 10.4322 30.4415 10.1097V18.1777C30.2638 18.4966 30.0469 18.8083 29.791 19.1128V11.0448Z" fill="#F74F25"/>
<path d="M27.666 12.84C28.0674 12.5857 28.437 12.3206 28.7745 12.0447V20.1091C28.437 20.385 28.0674 20.6537 27.666 20.9045V12.8364" fill="#F74F25"/>
<path d="M24.6816 14.2764C25.2004 14.0865 25.6978 13.8787 26.1632 13.6602V21.7246C25.6942 21.9467 25.2004 22.1509 24.6816 22.3408V14.2728" fill="#F74F25"/>
<path d="M21.0137 15.265C21.6285 15.1504 22.2219 15.0178 22.794 14.8674V22.9318C22.2219 23.0822 21.6249 23.2184 21.0137 23.3294V15.2614" fill="#F74F25"/>
<path d="M12.4883 15.5624C13.1386 15.634 13.8031 15.6842 14.4782 15.7128V23.7773C13.7995 23.7486 13.135 23.6985 12.4883 23.6268V15.5588" fill="#F74F25"/>
<path d="M16.8359 15.7172C17.5146 15.6921 18.1826 15.6455 18.8329 15.5774V23.6454C18.1826 23.7135 17.5146 23.7601 16.8359 23.7851V15.7172Z" fill="#F74F25"/>
<path d="M8.54883 14.8279C9.11737 14.982 9.71079 15.1181 10.322 15.2363V23.3007C9.71079 23.1825 9.12094 23.0464 8.54883 22.8923V14.8243" fill="#F74F25"/>
<path d="M5.20508 13.6027C5.67057 13.8248 6.16093 14.0362 6.67618 14.2296V22.2941C6.16093 22.1006 5.667 21.8928 5.20508 21.6671V13.5991" fill="#F74F25"/>
<path d="M2.62891 11.9728C2.95938 12.2522 3.32539 12.5209 3.71981 12.7752V20.8433C3.32539 20.5889 2.95938 20.3202 2.62891 20.0408V11.9728Z" fill="#F74F25"/>
<path d="M1.00195 10.031C1.17252 10.3535 1.38216 10.6652 1.6309 10.9697V19.0377C1.38216 18.7332 1.17252 18.4215 1.00195 18.099V10.031Z" fill="#F74F25"/>
<path d="M52.9709 17.3232V10.675C52.9709 9.04979 52.5583 7.82579 51.7329 7.01309C50.9076 6.20049 49.6443 5.79419 47.9434 5.79419H46.6952V7.64289H47.8629C48.9197 7.64289 49.6846 7.89179 50.1628 8.38949C50.6407 8.88729 50.8773 9.65919 50.8773 10.7105V11.3302L46.7102 12.0361C45.1302 12.3053 43.9324 12.7776 43.1071 13.448C42.2817 14.1184 41.8691 15.058 41.8691 16.2719C41.8691 17.4857 42.2866 18.4405 43.117 19.1363C43.9475 19.8321 45.0749 20.1825 46.4938 20.1825C47.6916 20.1825 48.7132 19.9286 49.5436 19.4207C50.2382 18.9992 50.696 18.3948 51.0131 17.6838C51.0131 18.1307 51.0284 18.537 51.0485 18.8519C51.0735 19.248 51.124 19.6035 51.1943 19.9083H53.2679C53.1772 19.4359 53.1068 18.989 53.0515 18.5675C52.9959 18.1409 52.9709 17.7295 52.9709 17.3333V17.3232ZM49.73 17.5009C48.965 18.0494 47.9837 18.3288 46.7857 18.3288C45.8548 18.3288 45.1503 18.151 44.6772 17.7853C44.199 17.4247 43.9625 16.8864 43.9625 16.1855C43.9625 15.4846 44.2243 14.9107 44.7425 14.5298C45.2609 14.1489 46.0259 13.8797 47.0273 13.7172L50.8724 13.1128V15.3475C50.8724 16.2312 50.4898 16.9524 49.73 17.506V17.5009Z" fill="#2B1818"/>
<path d="M64.6921 13.5547C64.6921 14.474 64.5009 15.2968 64.1135 16.0129C63.7258 16.7239 63.2025 17.2826 62.5382 17.6787C61.874 18.08 61.1139 18.278 60.2534 18.278C59.3021 18.278 58.5726 18.0139 58.0641 17.4908C57.551 16.9677 57.2992 16.1805 57.2992 15.1292V6.06348H55.1504V15.698C55.1504 16.5868 55.3467 17.3689 55.7392 18.0444C56.1317 18.7199 56.6803 19.2481 57.3797 19.6189C58.0794 19.9896 58.8744 20.1775 59.7752 20.1775C60.9429 20.1775 61.9997 19.8779 62.9458 19.2786C63.7763 18.7555 64.3801 18.0393 64.828 17.181V19.9033H66.8459V6.06348H64.6972V13.5547H64.6921Z" fill="#2B1818"/>
<path d="M79.502 8.496C79.16 7.8103 78.7371 7.2009 78.1333 6.7692C77.2526 6.1343 76.1706 5.8194 74.8772 5.8194C73.5839 5.8194 72.5269 6.1191 71.596 6.7133C70.6649 7.3075 69.9351 8.1506 69.4169 9.2375C68.8985 10.3193 68.6367 11.589 68.6367 13.0364C68.6367 14.4839 68.8934 15.713 69.4016 16.7795C69.9101 17.8461 70.6297 18.679 71.5506 19.2732C72.4716 19.8725 73.5536 20.1722 74.7916 20.1722C76.0296 20.1722 77.1267 19.8674 78.0326 19.2478C78.7674 18.7501 79.2706 18.0645 79.633 17.2772V19.8979H81.651V1.2688H79.502V8.496ZM78.4401 16.8506C77.6602 17.8004 76.5781 18.2727 75.1992 18.2727C73.8204 18.2727 72.7685 17.8054 71.9985 16.876C71.2284 15.9466 70.841 14.6617 70.841 13.0364C70.841 11.4112 71.2284 10.0704 71.9985 9.1308C72.7685 8.1912 73.8355 7.7189 75.1992 7.7189C76.5631 7.7189 77.6349 8.1912 78.4251 9.1308C79.2153 10.0704 79.6078 11.3452 79.6078 12.9552C79.6078 14.5652 79.2204 15.9009 78.4401 16.8506Z" fill="#2B1818"/>
<path d="M86.3052 6.06348H84.1562V19.9033H86.3052V6.06348Z" fill="#2B1818"/>
<path d="M98.4942 6.63241C97.5531 6.07381 96.4459 5.78931 95.1727 5.78931C93.8995 5.78931 92.6714 6.08901 91.6498 6.68831C90.6282 7.28251 89.8331 8.12051 89.2693 9.19731C88.7058 10.2739 88.4238 11.5183 88.4238 12.9302C88.4238 14.3421 88.7108 15.5915 89.2844 16.6733C89.8581 17.755 90.6483 18.6134 91.6498 19.2381C92.6512 19.8628 93.8087 20.1726 95.1173 20.1726C96.5162 20.1726 97.7392 19.8069 98.786 19.0705C99.8329 18.3391 100.583 17.3386 101.031 16.074H98.9874C98.6853 16.8002 98.1972 17.3538 97.5378 17.7449C96.8787 18.136 96.1035 18.329 95.228 18.329C93.8289 18.329 92.7117 17.8363 91.8812 16.851C91.1767 16.0181 90.7893 14.9363 90.6784 13.631H101.358C101.393 13.433 101.418 13.2501 101.424 13.0876C101.434 12.9251 101.439 12.7524 101.439 12.5696C101.439 11.1983 101.182 9.99971 100.674 8.98901C100.16 7.97831 99.4352 7.19111 98.4942 6.62741V6.63241ZM91.8764 9.06011C92.7117 8.11041 93.8087 7.63801 95.1727 7.63801C96.5363 7.63801 97.5228 8.08501 98.2525 8.97891C98.8212 9.68481 99.1635 10.6345 99.2843 11.8128H90.7036C90.8548 10.7057 91.2422 9.78131 91.8812 9.06011H91.8764Z" fill="#2B1818"/>
<path d="M110.441 5.78881C109.223 5.78881 108.131 6.08851 107.174 6.68781C106.334 7.21091 105.715 7.93211 105.252 8.79551V6.06311H103.234V19.9029H105.383V12.4167C105.383 11.4771 105.574 10.6544 105.962 9.94331C106.349 9.23741 106.883 8.68891 107.572 8.28761C108.262 7.88641 109.057 7.68831 109.953 7.68831C110.974 7.68831 111.744 7.95241 112.267 8.47561C112.786 8.99871 113.047 9.78591 113.047 10.8372V19.8978H115.196V10.2633C115.196 8.92761 114.764 7.84071 113.893 7.01791C113.022 6.19521 111.87 5.78381 110.436 5.78381L110.441 5.78881Z" fill="#2B1818"/>
<path d="M123.959 12.1934L121.81 11.5992C120.985 11.3656 120.401 11.0761 120.049 10.7307C119.701 10.3854 119.525 9.9791 119.525 9.5118C119.525 8.8973 119.767 8.41989 120.25 8.08969C120.733 7.75449 121.418 7.58689 122.293 7.58689C123.169 7.58689 123.944 7.785 124.497 8.1862C125.051 8.5824 125.393 9.1512 125.519 9.8978H127.593C127.467 8.6129 126.938 7.6123 126.007 6.8861C125.076 6.1598 123.863 5.79919 122.379 5.79919C120.894 5.79919 119.681 6.14959 118.801 6.84539C117.92 7.54119 117.482 8.49099 117.482 9.67939C117.482 10.619 117.794 11.4316 118.423 12.1071C119.052 12.7826 119.993 13.2904 121.246 13.6155L123.451 14.1843C124.367 14.423 124.976 14.7125 125.277 15.068C125.585 15.4185 125.735 15.8299 125.735 16.3022C125.735 16.9726 125.469 17.4856 124.93 17.8462C124.392 18.2068 123.647 18.3896 122.696 18.3896C121.619 18.3896 120.758 18.1559 120.114 17.6836C119.47 17.2113 119.082 16.5358 118.957 15.6521H116.883C117.024 17.0996 117.603 18.2169 118.604 19.0041C119.611 19.7913 120.954 20.1875 122.641 20.1875C124.326 20.1875 125.519 19.8472 126.43 19.1717C127.341 18.4962 127.799 17.5465 127.799 16.3377C127.799 15.3423 127.477 14.4891 126.832 13.7882C126.188 13.0822 125.227 12.5591 123.954 12.2137L123.959 12.1934Z" fill="#2B1818"/>
<path d="M141.536 8.99411C141.023 7.98341 140.298 7.19621 139.357 6.63241C138.416 6.06871 137.309 5.78931 136.036 5.78931C134.762 5.78931 133.534 6.08901 132.513 6.68831C131.491 7.28251 130.696 8.12051 130.132 9.19731C129.569 10.2739 129.287 11.5183 129.287 12.9302C129.287 14.3421 129.574 15.5915 130.148 16.6733C130.721 17.755 131.511 18.6134 132.513 19.2381C133.514 19.8628 134.672 20.1726 135.98 20.1726H137.112V18.334H136.091C134.692 18.329 133.575 17.8363 132.744 16.851C132.04 16.0181 131.652 14.9363 131.542 13.631H142.221C142.256 13.433 142.281 13.2501 142.286 13.0876C142.296 12.9251 142.301 12.7524 142.301 12.5696C142.301 11.1983 142.044 9.99971 141.536 8.98901V8.99411ZM132.744 9.06011C133.58 8.11041 134.677 7.63801 136.041 7.63801C137.405 7.63801 138.391 8.08501 139.121 8.97891C139.689 9.68481 140.032 10.6345 140.152 11.8128H131.572C131.723 10.7057 132.11 9.78131 132.749 9.06011H132.744Z" fill="#2B1818"/>
</g>
</svg>
