<svg xmlns:xlink="http://www.w3.org/1999/xlink" width="112" height="28" viewBox="0 0 112 28" fill="none" xmlns="http://www.w3.org/2000/svg"><title fill="none">Demand</title><path d="M0.678711 9.3704C0.678711 4.2662 9.002 0.108398 19.2352 0.108398C29.4685 0.108398 37.6018 4.1728 37.7824 9.2007V18.6945C37.6003 13.6651 29.3486 9.6023 19.2352 9.6023C9.1218 9.6023 0.678711 13.7585 0.678711 18.8642V9.3704Z" fill="#56AAA0"></path><path d="M35.9287 12.8993C36.2323 12.546 36.4907 12.1786 36.7024 11.7988V21.2926C36.4907 21.6678 36.2338 22.0351 35.9287 22.3932V12.8993Z" fill="#56AAA0"></path><path d="M33.4033 15.0118C33.8812 14.7129 34.3201 14.4 34.7202 14.0762V23.5654C34.3186 23.8907 33.8796 24.2067 33.4033 24.5009V15.0071" fill="#56AAA0"></path><path d="M29.8564 16.7019C30.4728 16.4793 31.0643 16.2334 31.6169 15.9766V25.4657C31.0596 25.7272 30.4728 25.967 29.8564 26.1911V16.6973" fill="#56AAA0"></path><path d="M25.4971 17.865C26.2272 17.7296 26.9323 17.574 27.6126 17.3965V26.8857C26.9323 27.0631 26.2225 27.2235 25.4971 27.3542V17.8604" fill="#56AAA0"></path><path d="M15.3672 18.2156C16.1393 18.2996 16.9301 18.3588 17.7317 18.393V27.8822C16.9254 27.848 16.1362 27.7888 15.3672 27.7048V18.2109" fill="#56AAA0"></path><path d="M20.5322 18.3974C21.3385 18.3678 22.1324 18.3133 22.906 18.2324V27.7262C22.1339 27.8056 21.3401 27.8617 20.5322 27.8912V18.3974Z" fill="#56AAA0"></path><path d="M10.6826 17.3514C11.3582 17.5319 12.0634 17.6923 12.7903 17.8324V27.3215C12.0634 27.183 11.3629 27.0227 10.6826 26.8405V17.3467" fill="#56AAA0"></path><path d="M6.70898 15.9099C7.26158 16.1714 7.84528 16.4205 8.45708 16.6478V26.1369C7.84528 25.9097 7.25848 25.6653 6.70898 25.3991V15.9053" fill="#56AAA0"></path><path d="M3.64746 13.9902C4.03973 14.3187 4.47558 14.6346 4.94417 14.9351V24.4289C4.47558 24.13 4.03973 23.8141 3.64746 23.484V13.9902Z" fill="#56AAA0"></path><path d="M1.71191 11.707C1.91427 12.0869 2.16333 12.4527 2.45909 12.8122V22.3061C2.16333 21.9481 1.91427 21.5807 1.71191 21.2009V11.707Z" fill="#56AAA0"></path><path d="M49.7964 8.21814C50.9292 8.21814 51.923 8.43954 52.7778 8.88234C53.6428 9.32514 54.3071 9.95854 54.7705 10.7823C55.2442 11.5959 55.481 12.5433 55.481 13.6246C55.481 14.7059 55.2442 15.6534 54.7705 16.4669C54.3071 17.2702 53.6428 17.8932 52.7778 18.3361C51.923 18.7789 50.9292 19.0003 49.7964 19.0003H46.0273V8.21814H49.7964ZM49.7192 17.1621C50.852 17.1621 51.7273 16.8531 52.3452 16.2352C52.9631 15.6173 53.2721 14.7471 53.2721 13.6246C53.2721 12.5021 52.9631 11.6268 52.3452 10.9986C51.7273 10.3601 50.852 10.0409 49.7192 10.0409H48.1899V17.1621H49.7192ZM65.0552 14.536C65.0552 14.845 65.0346 15.123 64.9935 15.3702H58.7373C58.7888 15.9881 59.005 16.4721 59.3861 16.8222C59.7671 17.1724 60.2357 17.3474 60.7918 17.3474C61.595 17.3474 62.1666 17.0024 62.5064 16.3125H64.839C64.5918 17.1363 64.1181 17.816 63.4178 18.3515C62.7175 18.8767 61.8576 19.1393 60.8381 19.1393C60.0143 19.1393 59.2728 18.9591 58.6137 18.5987C57.9649 18.2279 57.4552 17.7079 57.0844 17.0385C56.724 16.3691 56.5438 15.5967 56.5438 14.7214C56.5438 13.8357 56.724 13.0582 57.0844 12.3888C57.4449 11.7195 57.9495 11.2046 58.5983 10.8441C59.2471 10.4837 59.9937 10.3035 60.8381 10.3035C61.6517 10.3035 62.3777 10.4785 63.0162 10.8287C63.665 11.1788 64.1644 11.6783 64.5146 12.3271C64.875 12.9655 65.0552 13.7019 65.0552 14.536ZM62.8154 13.9181C62.8051 13.362 62.6043 12.9192 62.2129 12.5897C61.8216 12.2498 61.3427 12.0799 60.7763 12.0799C60.2408 12.0799 59.7877 12.2447 59.417 12.5742C59.0565 12.8935 58.8351 13.3414 58.7527 13.9181H62.8154ZM77.2615 10.3189C78.3119 10.3189 79.1564 10.6433 79.7949 11.2921C80.4437 11.9306 80.7681 12.8265 80.7681 13.9799V19.0003H78.6054V14.2734C78.6054 13.604 78.4355 13.0943 78.0957 12.7441C77.7558 12.3837 77.2924 12.2035 76.7054 12.2035C76.1184 12.2035 75.6498 12.3837 75.2997 12.7441C74.9599 13.0943 74.7899 13.604 74.7899 14.2734V19.0003H72.6273V14.2734C72.6273 13.604 72.4574 13.0943 72.1176 12.7441C71.7777 12.3837 71.3143 12.2035 70.7273 12.2035C70.13 12.2035 69.6563 12.3837 69.3061 12.7441C68.9663 13.0943 68.7964 13.604 68.7964 14.2734V19.0003H66.6338V10.4425H68.7964V11.4775C69.0744 11.117 69.4297 10.8338 69.8623 10.6279C70.3051 10.4219 70.7891 10.3189 71.3143 10.3189C71.9837 10.3189 72.581 10.4631 73.1062 10.7514C73.6314 11.0295 74.0382 11.4311 74.3265 11.9563C74.6046 11.462 75.0062 11.0655 75.5314 10.7669C76.0669 10.4682 76.6436 10.3189 77.2615 10.3189ZM82.2642 14.6905C82.2642 13.8255 82.4341 13.0582 82.7739 12.3888C83.1241 11.7195 83.5926 11.2046 84.1796 10.8441C84.7769 10.4837 85.4411 10.3035 86.1723 10.3035C86.8108 10.3035 87.3669 10.4322 87.8406 10.6896C88.3246 10.9471 88.7108 11.2715 88.9992 11.6628V10.4425H91.1773V19.0003H88.9992V17.7491C88.7211 18.1507 88.3349 18.4854 87.8406 18.7531C87.3566 19.0106 86.7954 19.1393 86.1569 19.1393C85.436 19.1393 84.7769 18.954 84.1796 18.5832C83.5926 18.2125 83.1241 17.6924 82.7739 17.023C82.4341 16.3434 82.2642 15.5658 82.2642 14.6905ZM88.9992 14.7214C88.9992 14.1962 88.8962 13.7482 88.6902 13.3775C88.4843 12.9964 88.2062 12.7081 87.8561 12.5124C87.5059 12.3065 87.1301 12.2035 86.7284 12.2035C86.3268 12.2035 85.9561 12.3013 85.6162 12.497C85.2764 12.6926 84.9983 12.981 84.7821 13.362C84.5761 13.7328 84.4731 14.1756 84.4731 14.6905C84.4731 15.2054 84.5761 15.6585 84.7821 16.0499C84.9983 16.4309 85.2764 16.7244 85.6162 16.9304C85.9664 17.1363 86.3371 17.2393 86.7284 17.2393C87.1301 17.2393 87.5059 17.1415 87.8561 16.9458C88.2062 16.7398 88.4843 16.4515 88.6902 16.0808C88.8962 15.6997 88.9992 15.2466 88.9992 14.7214ZM98.032 10.3189C99.051 10.3189 99.875 10.6433 100.503 11.2921C101.132 11.9306 101.446 12.8265 101.446 13.9799V19.0003H99.283V14.2734C99.283 13.5937 99.113 13.0737 98.773 12.7132C98.433 12.3425 97.97 12.1571 97.383 12.1571C96.786 12.1571 96.312 12.3425 95.962 12.7132C95.622 13.0737 95.4521 13.5937 95.4521 14.2734V19.0003H93.2894V10.4425H95.4521V11.5084C95.74 11.1376 96.106 10.8493 96.549 10.6433C97.002 10.427 97.496 10.3189 98.032 10.3189ZM102.946 14.6905C102.946 13.8255 103.116 13.0582 103.456 12.3888C103.806 11.7195 104.28 11.2046 104.877 10.8441C105.474 10.4837 106.138 10.3035 106.87 10.3035C107.426 10.3035 107.956 10.427 108.461 10.6742C108.965 10.9111 109.367 11.2303 109.666 11.6319V7.56934H111.859V19.0003H109.666V17.7336C109.398 18.1558 109.022 18.4957 108.538 18.7531C108.054 19.0106 107.493 19.1393 106.854 19.1393C106.133 19.1393 105.474 18.954 104.877 18.5832C104.28 18.2125 103.806 17.6924 103.456 17.023C103.116 16.3434 102.946 15.5658 102.946 14.6905ZM109.681 14.7214C109.681 14.1962 109.578 13.7482 109.372 13.3775C109.166 12.9964 108.888 12.7081 108.538 12.5124C108.188 12.3065 107.812 12.2035 107.41 12.2035C107.009 12.2035 106.638 12.3013 106.298 12.497C105.958 12.6926 105.68 12.981 105.464 13.362C105.258 13.7328 105.155 14.1756 105.155 14.6905C105.155 15.2054 105.258 15.6585 105.464 16.0499C105.68 16.4309 105.958 16.7244 106.298 16.9304C106.648 17.1363 107.019 17.2393 107.41 17.2393C107.812 17.2393 108.188 17.1415 108.538 16.9458C108.888 16.7398 109.166 16.4515 109.372 16.0808C109.578 15.6997 109.681 15.2466 109.681 14.7214Z" fill="#56AAA0"></path></svg>