<svg xmlns:xlink="http://www.w3.org/1999/xlink" width="190" height="37" viewBox="0 0 190 37" fill="none" xmlns="http://www.w3.org/2000/svg"><title fill="none">Digital Intelligence for LinkedIn</title><path d="M0.679688 9.2619C0.679688 4.1577 9.00299 0 19.2362 0C29.4694 0 37.6028 4.0643 37.7834 9.0922V18.5861C37.6012 13.5566 29.3496 9.4938 19.2362 9.4938C9.12279 9.4938 0.679688 13.65 0.679688 18.7558V9.2619Z" fill="#4C97C7"></path><path d="M35.9287 12.791C36.2323 12.4376 36.4907 12.0703 36.7024 11.6904V21.1843C36.4907 21.5594 36.2338 21.9268 35.9287 22.2848V12.791Z" fill="#4C97C7"></path><path d="M33.4043 14.9033C33.8822 14.6044 34.3211 14.2916 34.7212 13.9678V23.457C34.3196 23.7823 33.8806 24.0983 33.4043 24.3925V14.8986" fill="#4C97C7"></path><path d="M29.8564 16.5936C30.4729 16.371 31.0644 16.1251 31.617 15.8682V25.3574C31.0597 25.6189 30.4729 25.8586 29.8564 26.0828V16.5889" fill="#4C97C7"></path><path d="M25.498 17.7566C26.2281 17.6212 26.9332 17.4655 27.6134 17.2881V26.7772C26.9332 26.9547 26.2234 27.115 25.498 27.2458V17.7519" fill="#4C97C7"></path><path d="M15.3672 18.1062C16.1393 18.1903 16.93 18.2494 17.7317 18.2837V27.7729C16.9254 27.7386 16.1362 27.6795 15.3672 27.5954V18.1016" fill="#4C97C7"></path><path d="M20.5322 18.289C21.3385 18.2594 22.1324 18.2049 22.906 18.124V27.6178C22.1339 27.6972 21.3401 27.7532 20.5322 27.7828V18.289Z" fill="#4C97C7"></path><path d="M10.6836 17.243C11.3592 17.4236 12.0643 17.5839 12.7913 17.724V27.2132C12.0643 27.0746 11.3639 26.9143 10.6836 26.7322V17.2383" fill="#4C97C7"></path><path d="M6.70996 15.8016C7.26256 16.0631 7.84626 16.3122 8.45796 16.5394V26.0286C7.84626 25.8013 7.25936 25.5569 6.70996 25.2908V15.7969" fill="#4C97C7"></path><path d="M3.64746 13.8818C4.03973 14.2102 4.47558 14.5262 4.94408 14.8266V24.3205C4.47558 24.0216 4.03973 23.7056 3.64746 23.3756V13.8818Z" fill="#4C97C7"></path><path d="M1.71289 11.5986C1.91525 11.9784 2.16431 12.3442 2.46007 12.7038V22.1976C2.16431 21.8396 1.91525 21.4723 1.71289 21.0924V11.5986Z" fill="#4C97C7"></path><path d="M130.696 27.3965C131.705 27.3965 132.521 27.7178 133.144 28.3604C133.766 28.9928 134.077 29.8802 134.077 31.0226V35.9951H131.935V31.3133C131.935 30.6401 131.767 30.125 131.43 29.768C131.093 29.4008 130.634 29.2172 130.053 29.2172C129.461 29.2172 128.992 29.4008 128.645 29.768C128.309 30.125 128.141 30.6401 128.141 31.3133V35.9951H125.999V27.5189H128.141V28.5746C128.426 28.2074 128.788 27.9218 129.227 27.7178C129.676 27.5036 130.165 27.3965 130.696 27.3965Z" fill="#4C97C7"></path><path d="M123.882 25.3154V35.9948H121.74V25.3154H123.882Z" fill="#4C97C7"></path><path d="M110.82 31.7262C110.82 30.8694 110.988 30.1095 111.325 29.4465C111.672 28.7835 112.141 28.2735 112.733 27.9165C113.324 27.5595 113.982 27.381 114.706 27.381C115.257 27.381 115.782 27.5034 116.282 27.7482C116.782 27.9828 117.18 28.299 117.476 28.6968V24.6729H119.648V35.9949H117.476V34.7403C117.21 35.1585 116.838 35.4951 116.359 35.7501C115.879 36.0051 115.323 36.1326 114.691 36.1326C113.977 36.1326 113.324 35.949 112.733 35.5818C112.141 35.2146 111.672 34.6995 111.325 34.0365C110.988 33.3633 110.82 32.5932 110.82 31.7262ZM117.491 31.7568C117.491 31.2366 117.389 30.7929 117.185 30.4257C116.981 30.0483 116.705 29.7627 116.359 29.5689C116.012 29.3649 115.64 29.2629 115.242 29.2629C114.844 29.2629 114.477 29.3598 114.14 29.5536C113.804 29.7474 113.528 30.033 113.314 30.4104C113.11 30.7776 113.008 31.2162 113.008 31.7262C113.008 32.2362 113.11 32.685 113.314 33.0726C113.528 33.45 113.804 33.7407 114.14 33.9447C114.487 34.1487 114.854 34.2507 115.242 34.2507C115.64 34.2507 116.012 34.1538 116.359 33.96C116.705 33.756 116.981 33.4704 117.185 33.1032C117.389 32.7258 117.491 32.277 117.491 31.7568Z" fill="#4C97C7"></path><path d="M109.807 31.5731C109.807 31.8791 109.787 32.1545 109.746 32.3993H103.55C103.601 33.0113 103.815 33.4907 104.192 33.8375C104.57 34.1843 105.034 34.3577 105.585 34.3577C106.38 34.3577 106.946 34.016 107.283 33.3326H109.593C109.349 34.1486 108.879 34.8218 108.186 35.3522C107.492 35.8724 106.64 36.1325 105.631 36.1325C104.815 36.1325 104.08 35.954 103.427 35.597C102.785 35.2298 102.28 34.7147 101.913 34.0517C101.556 33.3887 101.377 32.6237 101.377 31.7567C101.377 30.8795 101.556 30.1094 101.913 29.4464C102.27 28.7834 102.769 28.2734 103.412 27.9164C104.055 27.5594 104.794 27.3809 105.631 27.3809C106.436 27.3809 107.156 27.5543 107.788 27.9011C108.431 28.2479 108.925 28.7426 109.272 29.3852C109.629 30.0176 109.807 30.7469 109.807 31.5731ZM107.589 30.9611C107.579 30.4103 107.38 29.9717 106.992 29.6453C106.605 29.3087 106.13 29.1404 105.569 29.1404C105.039 29.1404 104.59 29.3036 104.223 29.63C103.866 29.9462 103.647 30.3899 103.565 30.9611H107.589Z" fill="#4C97C7"></path><path d="M98.0113 35.9949L95.1349 32.3841V35.9949H92.9929V24.6729H95.1349V31.1142L97.9807 27.5187H100.765L97.0321 31.7721L100.796 35.9949H98.0113Z" fill="#4C97C7"></path><path d="M87.5748 27.3965C88.5846 27.3965 89.4006 27.7178 90.0228 28.3604C90.645 28.9928 90.9561 29.8802 90.9561 31.0226V35.9951H88.8141V31.3133C88.8141 30.6401 88.6458 30.125 88.3092 29.768C87.9726 29.4008 87.5136 29.2172 86.9322 29.2172C86.3406 29.2172 85.8714 29.4008 85.5246 29.768C85.188 30.125 85.0197 30.6401 85.0197 31.3133V35.9951H82.8777V27.5189H85.0197V28.5746C85.3053 28.2074 85.6674 27.9218 86.106 27.7178C86.5548 27.5036 87.0444 27.3965 87.5748 27.3965Z" fill="#4C97C7"></path><path d="M79.7057 26.5092C79.3283 26.5092 79.0121 26.3919 78.7571 26.1573C78.5123 25.9125 78.3899 25.6116 78.3899 25.2546C78.3899 24.8976 78.5123 24.6018 78.7571 24.3672C79.0121 24.1224 79.3283 24 79.7057 24C80.0831 24 80.3942 24.1224 80.639 24.3672C80.894 24.6018 81.0215 24.8976 81.0215 25.2546C81.0215 25.6116 80.894 25.9125 80.639 26.1573C80.3942 26.3919 80.0831 26.5092 79.7057 26.5092ZM80.7614 27.519V35.9952H78.6194V27.519H80.7614Z" fill="#4C97C7"></path><path d="M73.7389 34.2965H77.2579V35.9948H71.5969V25.3154H73.7389V34.2965Z" fill="#4C97C7"></path><path d="M63.9074 28.8347C64.1828 28.3859 64.5398 28.034 64.9784 27.779C65.4272 27.524 65.9372 27.3965 66.5084 27.3965V29.6456H65.9423C65.2691 29.6456 64.7591 29.8037 64.4123 30.1199C64.0757 30.4361 63.9074 30.9869 63.9074 31.7723V35.9951H61.7654V27.5189H63.9074V28.8347Z" fill="#4C97C7"></path><path d="M55.7724 36.1325C54.9564 36.1325 54.222 35.954 53.5692 35.597C52.9164 35.2298 52.4013 34.7147 52.0239 34.0517C51.6567 33.3887 51.4731 32.6237 51.4731 31.7567C51.4731 30.8897 51.6618 30.1247 52.0392 29.4617C52.4268 28.7987 52.9521 28.2887 53.6151 27.9317C54.2781 27.5645 55.0176 27.3809 55.8336 27.3809C56.6496 27.3809 57.3891 27.5645 58.0521 27.9317C58.7151 28.2887 59.2353 28.7987 59.6127 29.4617C60.0003 30.1247 60.1941 30.8897 60.1941 31.7567C60.1941 32.6237 59.9952 33.3887 59.5974 34.0517C59.2098 34.7147 58.6794 35.2298 58.0062 35.597C57.3432 35.954 56.5986 36.1325 55.7724 36.1325ZM55.7724 34.2659C56.16 34.2659 56.5221 34.1741 56.8587 33.9905C57.2055 33.7967 57.4809 33.5111 57.6849 33.1337C57.8889 32.7563 57.9909 32.2973 57.9909 31.7567C57.9909 30.9509 57.7767 30.3338 57.3483 29.9054C56.9301 29.4668 56.415 29.2475 55.803 29.2475C55.191 29.2475 54.6759 29.4668 54.2577 29.9054C53.8497 30.3338 53.6457 30.9509 53.6457 31.7567C53.6457 32.5625 53.8446 33.1847 54.2424 33.6233C54.6504 34.0517 55.1604 34.2659 55.7724 34.2659Z" fill="#4C97C7"></path><path d="M50.6206 29.2786H49.1365V35.9953H46.9639V29.2786H46V27.5191H46.9639V27.0907C46.9639 26.0503 47.2597 25.2853 47.8513 24.7957C48.4429 24.3061 49.3354 24.0766 50.5288 24.1072V25.9126C50.0086 25.9024 49.6465 25.9891 49.4425 26.1727C49.2385 26.3563 49.1365 26.6878 49.1365 27.1672V27.5191H50.6206V29.2786Z" fill="#4C97C7"></path><path d="M189.592 14.5731C189.592 14.8791 189.572 15.1545 189.531 15.3993H183.335C183.386 16.0113 183.6 16.4907 183.977 16.8375C184.355 17.1843 184.819 17.3577 185.37 17.3577C186.165 17.3577 186.731 17.016 187.068 16.3326H189.378C189.133 17.1486 188.664 17.8218 187.971 18.3522C187.277 18.8724 186.425 19.1325 185.416 19.1325C184.6 19.1325 183.865 18.954 183.212 18.597C182.57 18.2298 182.065 17.7147 181.698 17.0517C181.341 16.3887 181.162 15.6237 181.162 14.7567C181.162 13.8795 181.341 13.1094 181.698 12.4464C182.055 11.7834 182.554 11.2734 183.197 10.9164C183.84 10.5594 184.579 10.3809 185.416 10.3809C186.221 10.3809 186.94 10.5543 187.573 10.9011C188.215 11.2479 188.71 11.7426 189.057 12.3852C189.414 13.0176 189.592 13.7469 189.592 14.5731ZM187.374 13.9611C187.364 13.4103 187.165 12.9717 186.777 12.6453C186.39 12.3087 185.915 12.1404 185.354 12.1404C184.824 12.1404 184.375 12.3036 184.008 12.63C183.651 12.9462 183.432 13.3899 183.35 13.9611H187.374Z" fill="#4C97C7"></path><path d="M171.958 14.7567C171.958 13.8795 172.137 13.1145 172.494 12.4617C172.851 11.7987 173.345 11.2887 173.978 10.9317C174.61 10.5645 175.334 10.3809 176.15 10.3809C177.201 10.3809 178.068 10.6461 178.751 11.1765C179.445 11.6967 179.909 12.4311 180.144 13.3797H177.833C177.711 13.0125 177.502 12.7269 177.206 12.5229C176.92 12.3087 176.563 12.2016 176.135 12.2016C175.523 12.2016 175.038 12.426 174.681 12.8748C174.324 13.3134 174.146 13.9407 174.146 14.7567C174.146 15.5625 174.324 16.1898 174.681 16.6386C175.038 17.0772 175.523 17.2965 176.135 17.2965C177.002 17.2965 177.568 16.9089 177.833 16.1337H180.144C179.909 17.0517 179.445 17.781 178.751 18.3216C178.058 18.8622 177.191 19.1325 176.15 19.1325C175.334 19.1325 174.61 18.954 173.978 18.597C173.345 18.2298 172.851 17.7198 172.494 17.067C172.137 16.404 171.958 15.6339 171.958 14.7567Z" fill="#4C97C7"></path><path d="M167.091 10.3965C168.1 10.3965 168.916 10.7178 169.539 11.3604C170.161 11.9928 170.472 12.8802 170.472 14.0226V18.9951H168.33V14.3133C168.33 13.6401 168.162 13.125 167.825 12.768C167.488 12.4008 167.029 12.2172 166.448 12.2172C165.856 12.2172 165.387 12.4008 165.04 12.768C164.704 13.125 164.536 13.6401 164.536 14.3133V18.9951H162.394V10.5189H164.536V11.5746C164.821 11.2074 165.183 10.9218 165.622 10.7178C166.071 10.5036 166.56 10.3965 167.091 10.3965Z" fill="#4C97C7"></path><path d="M160.83 14.5731C160.83 14.8791 160.81 15.1545 160.769 15.3993H154.573C154.624 16.0113 154.838 16.4907 155.215 16.8375C155.593 17.1843 156.057 17.3577 156.607 17.3577C157.403 17.3577 157.969 17.016 158.306 16.3326H160.616C160.371 17.1486 159.902 17.8218 159.208 18.3522C158.515 18.8724 157.663 19.1325 156.653 19.1325C155.837 19.1325 155.103 18.954 154.45 18.597C153.808 18.2298 153.303 17.7147 152.935 17.0517C152.578 16.3887 152.4 15.6237 152.4 14.7567C152.4 13.8795 152.578 13.1094 152.935 12.4464C153.292 11.7834 153.792 11.2734 154.435 10.9164C155.077 10.5594 155.817 10.3809 156.653 10.3809C157.459 10.3809 158.178 10.5543 158.811 10.9011C159.453 11.2479 159.948 11.7426 160.295 12.3852C160.652 13.0176 160.83 13.7469 160.83 14.5731ZM158.612 13.9611C158.602 13.4103 158.403 12.9717 158.015 12.6453C157.627 12.3087 157.153 12.1404 156.592 12.1404C156.062 12.1404 155.613 12.3036 155.246 12.63C154.889 12.9462 154.669 13.3899 154.588 13.9611H158.612Z" fill="#4C97C7"></path><path d="M145.901 10.3809C146.534 10.3809 147.09 10.5084 147.569 10.7634C148.049 11.0082 148.426 11.3295 148.701 11.7273V10.5186H150.859V19.056C150.859 19.8414 150.701 20.5401 150.384 21.1521C150.068 21.7743 149.594 22.2639 148.961 22.6209C148.329 22.9881 147.564 23.1717 146.666 23.1717C145.463 23.1717 144.473 22.8912 143.698 22.3302C142.933 21.7692 142.5 21.0042 142.398 20.0352H144.524C144.637 20.4228 144.876 20.7288 145.244 20.9532C145.621 21.1878 146.075 21.3051 146.605 21.3051C147.227 21.3051 147.732 21.1164 148.12 20.739C148.508 20.3718 148.701 19.8108 148.701 19.056V17.7402C148.426 18.138 148.043 18.4695 147.554 18.7347C147.074 18.9999 146.524 19.1325 145.901 19.1325C145.187 19.1325 144.535 18.9489 143.943 18.5817C143.351 18.2145 142.882 17.6994 142.535 17.0364C142.199 16.3632 142.031 15.5931 142.031 14.7261C142.031 13.8693 142.199 13.1094 142.535 12.4464C142.882 11.7834 143.346 11.2734 143.928 10.9164C144.519 10.5594 145.177 10.3809 145.901 10.3809ZM148.701 14.7567C148.701 14.2365 148.599 13.7928 148.395 13.4256C148.191 13.0482 147.916 12.7626 147.569 12.5688C147.222 12.3648 146.85 12.2628 146.452 12.2628C146.054 12.2628 145.687 12.3597 145.351 12.5535C145.014 12.7473 144.739 13.0329 144.524 13.4103C144.32 13.7775 144.218 14.2161 144.218 14.7261C144.218 15.2361 144.32 15.6849 144.524 16.0725C144.739 16.4499 145.014 16.7406 145.351 16.9446C145.697 17.1486 146.065 17.2506 146.452 17.2506C146.85 17.2506 147.222 17.1537 147.569 16.9599C147.916 16.7559 148.191 16.4703 148.395 16.1031C148.599 15.7257 148.701 15.2769 148.701 14.7567Z" fill="#4C97C7"></path><path d="M139.409 9.5092C139.032 9.5092 138.716 9.3919 138.461 9.1573C138.216 8.9125 138.094 8.6116 138.094 8.2546C138.094 7.8976 138.216 7.6018 138.461 7.3672C138.716 7.1224 139.032 7 139.409 7C139.787 7 140.098 7.1224 140.343 7.3672C140.598 7.6018 140.725 7.8976 140.725 8.2546C140.725 8.6116 140.598 8.9125 140.343 9.1573C140.098 9.3919 139.787 9.5092 139.409 9.5092ZM140.465 10.519V18.9952H138.323V10.519H140.465Z" fill="#4C97C7"></path><path d="M136.207 7.67285V18.9949H134.065V7.67285H136.207Z" fill="#4C97C7"></path><path d="M131.948 7.67285V18.9949H129.806V7.67285H131.948Z" fill="#4C97C7"></path><path d="M128.243 14.5731C128.243 14.8791 128.222 15.1545 128.182 15.3993H121.985C122.036 16.0113 122.25 16.4907 122.628 16.8375C123.005 17.1843 123.469 17.3577 124.02 17.3577C124.816 17.3577 125.382 17.016 125.718 16.3326H128.029C127.784 17.1486 127.315 17.8218 126.621 18.3522C125.927 18.8724 125.076 19.1325 124.066 19.1325C123.25 19.1325 122.516 18.954 121.863 18.597C121.22 18.2298 120.715 17.7147 120.348 17.0517C119.991 16.3887 119.812 15.6237 119.812 14.7567C119.812 13.8795 119.991 13.1094 120.348 12.4464C120.705 11.7834 121.205 11.2734 121.847 10.9164C122.49 10.5594 123.23 10.3809 124.066 10.3809C124.872 10.3809 125.591 10.5543 126.223 10.9011C126.866 11.2479 127.361 11.7426 127.707 12.3852C128.064 13.0176 128.243 13.7469 128.243 14.5731ZM126.024 13.9611C126.014 13.4103 125.815 12.9717 125.428 12.6453C125.04 12.3087 124.566 12.1404 124.005 12.1404C123.474 12.1404 123.026 12.3036 122.658 12.63C122.301 12.9462 122.082 13.3899 122 13.9611H126.024Z" fill="#4C97C7"></path><path d="M116.926 12.2785V16.3789C116.926 16.6645 116.992 16.8736 117.124 17.0062C117.267 17.1286 117.502 17.1898 117.828 17.1898H118.823V18.9952H117.476C115.671 18.9952 114.768 18.118 114.768 16.3636V12.2785H113.758V10.519H114.768V8.42285H116.926V10.519H118.823V12.2785H116.926Z" fill="#4C97C7"></path><path d="M109.013 10.3965C110.023 10.3965 110.839 10.7178 111.461 11.3604C112.084 11.9928 112.395 12.8802 112.395 14.0226V18.9951H110.253V14.3133C110.253 13.6401 110.084 13.125 109.748 12.768C109.411 12.4008 108.952 12.2172 108.371 12.2172C107.779 12.2172 107.31 12.4008 106.963 12.768C106.627 13.125 106.458 13.6401 106.458 14.3133V18.9951H104.316V10.5189H106.458V11.5746C106.744 11.2074 107.106 10.9218 107.545 10.7178C107.993 10.5036 108.483 10.3965 109.013 10.3965Z" fill="#4C97C7"></path><path d="M102.2 8.31543V18.9948H100.058V8.31543H102.2Z" fill="#4C97C7"></path><path d="M94.2961 7.67285V18.9949H92.1541V7.67285H94.2961Z" fill="#4C97C7"></path><path d="M81.2339 14.7261C81.2339 13.8693 81.4022 13.1094 81.7388 12.4464C82.0856 11.7834 82.5497 11.2734 83.1311 10.9164C83.7227 10.5594 84.3806 10.3809 85.1048 10.3809C85.7372 10.3809 86.288 10.5084 86.7572 10.7634C87.2366 11.0184 87.6191 11.3397 87.9047 11.7273V10.5186H90.062V18.9948H87.9047V17.7555C87.6293 18.1533 87.2468 18.4848 86.7572 18.75C86.2778 19.005 85.7219 19.1325 85.0895 19.1325C84.3755 19.1325 83.7227 18.9489 83.1311 18.5817C82.5497 18.2145 82.0856 17.6994 81.7388 17.0364C81.4022 16.3632 81.2339 15.5931 81.2339 14.7261ZM87.9047 14.7567C87.9047 14.2365 87.8027 13.7928 87.5987 13.4256C87.3947 13.0482 87.1193 12.7626 86.7725 12.5688C86.4257 12.3648 86.0534 12.2628 85.6556 12.2628C85.2578 12.2628 84.8906 12.3597 84.554 12.5535C84.2174 12.7473 83.942 13.0329 83.7278 13.4103C83.5238 13.7775 83.4218 14.2161 83.4218 14.7261C83.4218 15.2361 83.5238 15.6849 83.7278 16.0725C83.942 16.4499 84.2174 16.7406 84.554 16.9446C84.9008 17.1486 85.268 17.2506 85.6556 17.2506C86.0534 17.2506 86.4257 17.1537 86.7725 16.9599C87.1193 16.7559 87.3947 16.4703 87.5987 16.1031C87.8027 15.7257 87.9047 15.2769 87.9047 14.7567Z" fill="#4C97C7"></path><path d="M78.3468 12.2785V16.3789C78.3468 16.6645 78.4131 16.8736 78.5457 17.0062C78.6885 17.1286 78.9231 17.1898 79.2495 17.1898H80.244V18.9952H78.8976C77.0922 18.9952 76.1895 18.118 76.1895 16.3636V12.2785H75.1797V10.519H76.1895V8.42285H78.3468V10.519H80.244V12.2785H78.3468Z" fill="#4C97C7"></path><path d="M72.681 9.5092C72.3036 9.5092 71.9874 9.3919 71.7324 9.1573C71.4876 8.9125 71.3652 8.6116 71.3652 8.2546C71.3652 7.8976 71.4876 7.6018 71.7324 7.3672C71.9874 7.1224 72.3036 7 72.681 7C73.0584 7 73.3695 7.1224 73.6143 7.3672C73.8693 7.6018 73.9968 7.8976 73.9968 8.2546C73.9968 8.6116 73.8693 8.9125 73.6143 9.1573C73.3695 9.3919 73.0584 9.5092 72.681 9.5092ZM73.7367 10.519V18.9952H71.5947V10.519H73.7367Z" fill="#4C97C7"></path><path d="M64.5455 10.3809C65.1779 10.3809 65.7338 10.5084 66.2132 10.7634C66.6926 11.0082 67.07 11.3295 67.3454 11.7273V10.5186H69.5027V19.056C69.5027 19.8414 69.3446 20.5401 69.0284 21.1521C68.7122 21.7743 68.2379 22.2639 67.6055 22.6209C66.9731 22.9881 66.2081 23.1717 65.3105 23.1717C64.1069 23.1717 63.1175 22.8912 62.3423 22.3302C61.5773 21.7692 61.1438 21.0042 61.0418 20.0352H63.1685C63.2807 20.4228 63.5204 20.7288 63.8876 20.9532C64.265 21.1878 64.7189 21.3051 65.2493 21.3051C65.8715 21.3051 66.3764 21.1164 66.764 20.739C67.1516 20.3718 67.3454 19.8108 67.3454 19.056V17.7402C67.07 18.138 66.6875 18.4695 66.1979 18.7347C65.7185 18.9999 65.1677 19.1325 64.5455 19.1325C63.8315 19.1325 63.1787 18.9489 62.5871 18.5817C61.9955 18.2145 61.5263 17.6994 61.1795 17.0364C60.8429 16.3632 60.6746 15.5931 60.6746 14.7261C60.6746 13.8693 60.8429 13.1094 61.1795 12.4464C61.5263 11.7834 61.9904 11.2734 62.5718 10.9164C63.1634 10.5594 63.8213 10.3809 64.5455 10.3809ZM67.3454 14.7567C67.3454 14.2365 67.2434 13.7928 67.0394 13.4256C66.8354 13.0482 66.56 12.7626 66.2132 12.5688C65.8664 12.3648 65.4941 12.2628 65.0963 12.2628C64.6985 12.2628 64.3313 12.3597 63.9947 12.5535C63.6581 12.7473 63.3827 13.0329 63.1685 13.4103C62.9645 13.7775 62.8625 14.2161 62.8625 14.7261C62.8625 15.2361 62.9645 15.6849 63.1685 16.0725C63.3827 16.4499 63.6581 16.7406 63.9947 16.9446C64.3415 17.1486 64.7087 17.2506 65.0963 17.2506C65.4941 17.2506 65.8664 17.1537 66.2132 16.9599C66.56 16.7559 66.8354 16.4703 67.0394 16.1031C67.2434 15.7257 67.3454 15.2769 67.3454 14.7567Z" fill="#4C97C7"></path><path d="M58.0533 9.5092C57.6759 9.5092 57.3597 9.3919 57.1047 9.1573C56.8599 8.9125 56.7375 8.6116 56.7375 8.2546C56.7375 7.8976 56.8599 7.6018 57.1047 7.3672C57.3597 7.1224 57.6759 7 58.0533 7C58.4307 7 58.7418 7.1224 58.9866 7.3672C59.2416 7.6018 59.3691 7.8976 59.3691 8.2546C59.3691 8.6116 59.2416 8.9125 58.9866 9.1573C58.7418 9.3919 58.4307 9.5092 58.0533 9.5092ZM59.109 10.519V18.9952H56.967V10.519H59.109Z" fill="#4C97C7"></path><path d="M49.7332 8.31543C50.8552 8.31543 51.8395 8.53473 52.6861 8.97333C53.5429 9.41193 54.2008 10.0392 54.6598 10.8552C55.129 11.661 55.3636 12.5994 55.3636 13.6704C55.3636 14.7414 55.129 15.6798 54.6598 16.4856C54.2008 17.2812 53.5429 17.8983 52.6861 18.3369C51.8395 18.7755 50.8552 18.9948 49.7332 18.9948H46V8.31543H49.7332ZM49.6567 17.1741C50.7787 17.1741 51.6457 16.8681 52.2577 16.2561C52.8697 15.6441 53.1757 14.7822 53.1757 13.6704C53.1757 12.5586 52.8697 11.6916 52.2577 11.0694C51.6457 10.437 50.7787 10.1208 49.6567 10.1208H48.142V17.1741H49.6567Z" fill="#4C97C7"></path></svg>