<svg xmlns:xlink="http://www.w3.org/1999/xlink" width="143" height="70" viewBox="0 0 143 70" fill="none" xmlns="http://www.w3.org/2000/svg"><title fill="none">Audiense</title><g clip-path="url(#clip0_1080_1896)" fill="none"><path d="M0.280518 31.066C0.280518 26.7274 7.2842 23.195 15.894 23.195C24.5038 23.195 31.3476 26.6486 31.5005 30.9227V38.9907C31.3476 34.7166 24.4043 31.263 15.894 31.263C7.38371 31.263 0.280518 34.7955 0.280518 39.134V31.066Z" fill="#F74F25"></path><path d="M29.9402 34.0648C30.1961 33.7638 30.413 33.4522 30.5907 33.1297V41.1977C30.413 41.5166 30.1961 41.8283 29.9402 42.1328V34.0648Z" fill="#F74F25"></path><path d="M27.8157 35.8599C28.2171 35.6056 28.5867 35.3405 28.9242 35.0646V43.129C28.5867 43.4049 28.2171 43.6736 27.8157 43.9244V35.8563" fill="#F74F25"></path><path d="M24.8306 37.2963C25.3494 37.1064 25.8468 36.8986 26.3122 36.6801V44.7445C25.8432 44.9666 25.3494 45.1708 24.8306 45.3607V37.2927" fill="#F74F25"></path><path d="M21.1633 38.285C21.7781 38.1704 22.3715 38.0378 22.9436 37.8874V45.9518C22.3715 46.1022 21.7745 46.2384 21.1633 46.3494V38.2814" fill="#F74F25"></path><path d="M12.6389 38.5824C13.2892 38.654 13.9537 38.7042 14.6288 38.7328V46.7973C13.9501 46.7686 13.2856 46.7185 12.6389 46.6468V38.5788" fill="#F74F25"></path><path d="M16.9851 38.7371C17.6638 38.712 18.3318 38.6654 18.9821 38.5973V46.6653C18.3318 46.7334 17.6638 46.78 16.9851 46.805V38.7371Z" fill="#F74F25"></path><path d="M8.69824 37.8479C9.26678 38.002 9.8602 38.1381 10.4714 38.2563V46.3207C9.8602 46.2025 9.27035 46.0664 8.69824 45.9123V37.8443" fill="#F74F25"></path><path d="M5.35449 36.6227C5.81998 36.8448 6.31034 37.0562 6.82559 37.2496V45.3141C6.31034 45.1206 5.81641 44.9128 5.35449 44.6871V36.6191" fill="#F74F25"></path><path d="M2.77856 34.9927C3.10903 35.2721 3.47504 35.5408 3.86946 35.7951V43.8632C3.47504 43.6088 3.10903 43.3401 2.77856 43.0607V34.9927Z" fill="#F74F25"></path><path d="M1.15112 33.051C1.32169 33.3735 1.53133 33.6852 1.78007 33.9897V42.0577C1.53133 41.7532 1.32169 41.4415 1.15112 41.119V33.051Z" fill="#F74F25"></path><path d="M53.1204 40.3431V33.6949C53.1204 32.0697 52.7078 30.8457 51.8824 30.033C51.0571 29.2204 49.7938 28.8141 48.0929 28.8141H46.8447V30.6628H48.0124C49.0692 30.6628 49.8341 30.9117 50.3123 31.4094C50.7902 31.9072 51.0268 32.6791 51.0268 33.7304V34.3501L46.8597 35.056C45.2797 35.3252 44.0819 35.7975 43.2566 36.4679C42.4312 37.1383 42.0186 38.0779 42.0186 39.2918C42.0186 40.5056 42.4361 41.4604 43.2665 42.1562C44.097 42.852 45.2244 43.2024 46.6433 43.2024C47.8411 43.2024 48.8627 42.9485 49.6931 42.4406C50.3877 42.0191 50.8455 41.4147 51.1626 40.7037C51.1626 41.1506 51.1779 41.5569 51.198 41.8718C51.223 42.2679 51.2735 42.6234 51.3438 42.9282H53.4174C53.3267 42.4558 53.2563 42.0089 53.201 41.5874C53.1454 41.1608 53.1204 40.7494 53.1204 40.3532V40.3431ZM49.8795 40.5208C49.1145 41.0693 48.1332 41.3487 46.9352 41.3487C46.0043 41.3487 45.2998 41.1709 44.8267 40.8052C44.3485 40.4446 44.112 39.9063 44.112 39.2054C44.112 38.5045 44.3738 37.9306 44.892 37.5497C45.4104 37.1688 46.1754 36.8996 47.1768 36.7371L51.0219 36.1327V38.3674C51.0219 39.2511 50.6393 39.9723 49.8795 40.5259V40.5208Z" fill="#2B1818"></path><path d="M64.8415 36.5746C64.8415 37.4939 64.6503 38.3167 64.2629 39.0328C63.8752 39.7438 63.3519 40.3025 62.6876 40.6986C62.0234 41.0999 61.2633 41.2979 60.4028 41.2979C59.4515 41.2979 58.722 41.0338 58.2135 40.5107C57.7004 39.9876 57.4486 39.2004 57.4486 38.1491V29.0834H55.2998V38.7179C55.2998 39.6067 55.4961 40.3888 55.8886 41.0643C56.2811 41.7398 56.8297 42.268 57.5291 42.6388C58.2288 43.0095 59.0238 43.1974 59.9246 43.1974C61.0923 43.1974 62.1491 42.8978 63.0952 42.2985C63.9257 41.7754 64.5295 41.0592 64.9774 40.2009V42.9232H66.9953V29.0834H64.8466V36.5746H64.8415Z" fill="#2B1818"></path><path d="M79.6517 31.516C79.3097 30.8303 78.8868 30.2209 78.283 29.7892C77.4023 29.1543 76.3203 28.8394 75.0269 28.8394C73.7336 28.8394 72.6766 29.1391 71.7457 29.7333C70.8146 30.3275 70.0848 31.1706 69.5666 32.2575C69.0482 33.3393 68.7864 34.609 68.7864 36.0564C68.7864 37.5039 69.0431 38.733 69.5513 39.7995C70.0598 40.8661 70.7794 41.699 71.7003 42.2932C72.6213 42.8925 73.7033 43.1922 74.9413 43.1922C76.1793 43.1922 77.2764 42.8874 78.1823 42.2678C78.9171 41.7701 79.4203 41.0845 79.7827 40.2972V42.9179H81.8007V24.2888H79.6517V31.516ZM78.5898 39.8706C77.8099 40.8204 76.7278 41.2927 75.3489 41.2927C73.9701 41.2927 72.9182 40.8254 72.1482 39.896C71.3781 38.9666 70.9907 37.6817 70.9907 36.0564C70.9907 34.4312 71.3781 33.0904 72.1482 32.1508C72.9182 31.2112 73.9852 30.7389 75.3489 30.7389C76.7128 30.7389 77.7846 31.2112 78.5748 32.1508C79.365 33.0904 79.7575 34.3652 79.7575 35.9752C79.7575 37.5852 79.3701 38.9209 78.5898 39.8706Z" fill="#2B1818"></path><path d="M86.4556 29.0834H84.3066V42.9232H86.4556V29.0834Z" fill="#2B1818"></path><path d="M98.6436 29.6523C97.7025 29.0937 96.5953 28.8092 95.3221 28.8092C94.0489 28.8092 92.8208 29.1089 91.7992 29.7082C90.7776 30.3024 89.9825 31.1404 89.4187 32.2172C88.8552 33.2938 88.5732 34.5382 88.5732 35.9501C88.5732 37.362 88.8602 38.6114 89.4338 39.6932C90.0075 40.7749 90.7977 41.6333 91.7992 42.258C92.8006 42.8827 93.9581 43.1925 95.2667 43.1925C96.6656 43.1925 97.8886 42.8268 98.9354 42.0904C99.9823 41.359 100.732 40.3585 101.18 39.0939H99.1368C98.8347 39.8201 98.3466 40.3737 97.6872 40.7648C97.0281 41.1559 96.2529 41.3489 95.3774 41.3489C93.9783 41.3489 92.8611 40.8562 92.0306 39.8709C91.3261 39.038 90.9387 37.9562 90.8278 36.6509H101.507C101.542 36.4529 101.567 36.27 101.573 36.1075C101.583 35.945 101.588 35.7723 101.588 35.5895C101.588 34.2182 101.331 33.0196 100.823 32.0089C100.309 30.9982 99.5846 30.211 98.6436 29.6473V29.6523ZM92.0258 32.08C92.8611 31.1303 93.9581 30.6579 95.3221 30.6579C96.6857 30.6579 97.6722 31.1049 98.4019 31.9988C98.9706 32.7047 99.3129 33.6544 99.4337 34.8327H90.853C91.0042 33.7256 91.3916 32.8012 92.0306 32.08H92.0258Z" fill="#2B1818"></path><path d="M110.591 28.8088C109.373 28.8088 108.281 29.1085 107.324 29.7078C106.484 30.2309 105.865 30.9521 105.402 31.8155V29.0831H103.384V42.9229H105.533V35.4367C105.533 34.4971 105.724 33.6744 106.112 32.9633C106.499 32.2574 107.033 31.7089 107.722 31.3076C108.412 30.9064 109.207 30.7083 110.103 30.7083C111.124 30.7083 111.894 30.9724 112.417 31.4956C112.936 32.0187 113.197 32.8059 113.197 33.8572V42.9178H115.346V33.2833C115.346 31.9476 114.914 30.8607 114.043 30.0379C113.172 29.2152 112.02 28.8038 110.586 28.8038L110.591 28.8088Z" fill="#2B1818"></path><path d="M124.108 35.2133L121.959 34.6191C121.134 34.3855 120.55 34.096 120.198 33.7506C119.85 33.4053 119.674 32.999 119.674 32.5317C119.674 31.9172 119.916 31.4398 120.399 31.1096C120.882 30.7744 121.567 30.6068 122.442 30.6068C123.318 30.6068 124.093 30.8049 124.646 31.2061C125.2 31.6023 125.542 32.1711 125.668 32.9177H127.742C127.616 31.6328 127.087 30.6322 126.156 29.906C125.225 29.1797 124.012 28.8191 122.528 28.8191C121.043 28.8191 119.83 29.1695 118.95 29.8653C118.069 30.5611 117.631 31.5109 117.631 32.6993C117.631 33.6389 117.943 34.4515 118.572 35.127C119.201 35.8025 120.142 36.3103 121.395 36.6354L123.6 37.2042C124.516 37.4429 125.125 37.7324 125.426 38.0879C125.734 38.4384 125.884 38.8498 125.884 39.3221C125.884 39.9925 125.618 40.5055 125.079 40.8661C124.541 41.2267 123.796 41.4095 122.845 41.4095C121.768 41.4095 120.907 41.1758 120.263 40.7035C119.619 40.2312 119.231 39.5557 119.106 38.672H117.032C117.173 40.1195 117.752 41.2368 118.753 42.024C119.76 42.8112 121.103 43.2074 122.79 43.2074C124.475 43.2074 125.668 42.8671 126.579 42.1916C127.49 41.5161 127.948 40.5664 127.948 39.3576C127.948 38.3622 127.626 37.509 126.981 36.8081C126.337 36.1021 125.376 35.579 124.103 35.2336L124.108 35.2133Z" fill="#2B1818"></path><path d="M141.686 32.014C141.173 31.0033 140.448 30.2161 139.507 29.6523C138.566 29.0886 137.459 28.8092 136.186 28.8092C134.912 28.8092 133.684 29.1089 132.663 29.7082C131.641 30.3024 130.846 31.1404 130.282 32.2172C129.719 33.2938 129.437 34.5382 129.437 35.9501C129.437 37.362 129.724 38.6114 130.298 39.6932C130.871 40.7749 131.661 41.6333 132.663 42.258C133.664 42.8827 134.822 43.1925 136.13 43.1925H137.262V41.3539H136.241C134.842 41.3489 133.725 40.8562 132.894 39.8709C132.19 39.038 131.802 37.9562 131.692 36.6509H142.371C142.406 36.4529 142.431 36.27 142.436 36.1075C142.446 35.945 142.451 35.7723 142.451 35.5895C142.451 34.2182 142.194 33.0196 141.686 32.0089V32.014ZM132.894 32.08C133.73 31.1303 134.827 30.6579 136.191 30.6579C137.555 30.6579 138.541 31.1049 139.271 31.9988C139.839 32.7047 140.182 33.6544 140.302 34.8327H131.722C131.873 33.7256 132.26 32.8012 132.899 32.08H132.894Z" fill="#2B1818"></path></g><defs><clipPath id="clip0_1080_1896"><rect width="142.486" height="23.96" fill="white" transform="translate(0.148926 23.02)"></rect></clipPath></defs></svg>