<svg xmlns:xlink="http://www.w3.org/1999/xlink" width="107" height="28" viewBox="0 0 107 28" fill="none" xmlns="http://www.w3.org/2000/svg"><title fill="none">Insights</title><path d="M0.178711 9.3704C0.178711 4.2662 8.502 0.108398 18.7352 0.108398C28.9685 0.108398 37.1018 4.1728 37.2824 9.2007V18.6945C37.1003 13.6651 28.8486 9.6023 18.7352 9.6023C8.6218 9.6023 0.178711 13.7585 0.178711 18.8642V9.3704Z" fill="#7F5DF6"></path><path d="M35.4287 12.8993C35.7323 12.546 35.9907 12.1786 36.2024 11.7988V21.2926C35.9907 21.6678 35.7338 22.0351 35.4287 22.3932V12.8993Z" fill="#7F5DF6"></path><path d="M32.9033 15.0118C33.3812 14.7129 33.8201 14.4 34.2202 14.0762V23.5654C33.8186 23.8907 33.3796 24.2067 32.9033 24.5009V15.0071" fill="#7F5DF6"></path><path d="M29.3564 16.7019C29.9728 16.4793 30.5643 16.2334 31.1169 15.9766V25.4657C30.5596 25.7272 29.9728 25.967 29.3564 26.1911V16.6973" fill="#7F5DF6"></path><path d="M24.9971 17.865C25.7272 17.7296 26.4323 17.574 27.1126 17.3965V26.8857C26.4323 27.0631 25.7225 27.2235 24.9971 27.3542V17.8604" fill="#7F5DF6"></path><path d="M14.8672 18.2156C15.6393 18.2996 16.4301 18.3588 17.2317 18.393V27.8822C16.4254 27.848 15.6362 27.7888 14.8672 27.7048V18.2109" fill="#7F5DF6"></path><path d="M20.0322 18.3974C20.8385 18.3678 21.6324 18.3133 22.406 18.2324V27.7262C21.6339 27.8056 20.8401 27.8617 20.0322 27.8912V18.3974Z" fill="#7F5DF6"></path><path d="M10.1826 17.3514C10.8582 17.5319 11.5634 17.6923 12.2903 17.8324V27.3215C11.5634 27.183 10.8629 27.0227 10.1826 26.8405V17.3467" fill="#7F5DF6"></path><path d="M6.20898 15.9099C6.76158 16.1714 7.34528 16.4205 7.95708 16.6478V26.1369C7.34528 25.9097 6.75848 25.6653 6.20898 25.3991V15.9053" fill="#7F5DF6"></path><path d="M3.14746 13.9902C3.53973 14.3187 3.97558 14.6346 4.44417 14.9351V24.4289C3.97558 24.13 3.53973 23.8141 3.14746 23.484V13.9902Z" fill="#7F5DF6"></path><path d="M1.21191 11.707C1.41427 12.0869 1.66333 12.4527 1.95909 12.8122V22.3061C1.66333 21.9481 1.41427 21.5807 1.21191 21.2009V11.707Z" fill="#7F5DF6"></path><path d="M47.6899 8.21814V19.0003H45.5273V8.21814H47.6899ZM54.5689 10.3189C55.5884 10.3189 56.4123 10.6433 57.0405 11.2921C57.6687 11.9306 57.9828 12.8265 57.9828 13.9799V19.0003H55.8201V14.2734C55.8201 13.5937 55.6502 13.0737 55.3104 12.7132C54.9705 12.3425 54.5071 12.1571 53.9201 12.1571C53.3228 12.1571 52.8491 12.3425 52.499 12.7132C52.1591 13.0737 51.9892 13.5937 51.9892 14.2734V19.0003H49.8266V10.4425H51.9892V11.5084C52.2776 11.1376 52.6432 10.8493 53.086 10.6433C53.5391 10.427 54.0334 10.3189 54.5689 10.3189ZM63.3141 19.1393C62.6139 19.1393 61.9857 19.0157 61.4296 18.7686C60.8735 18.5111 60.4306 18.1661 60.1011 17.7336C59.7819 17.3011 59.6068 16.8222 59.5759 16.297H61.754C61.7952 16.6266 61.9548 16.8995 62.2328 17.1157C62.5212 17.332 62.8765 17.4401 63.2987 17.4401C63.7106 17.4401 64.0299 17.3577 64.2564 17.193C64.4933 17.0282 64.6117 16.8171 64.6117 16.5596C64.6117 16.2816 64.4675 16.0756 64.1792 15.9417C63.9011 15.7976 63.4532 15.6431 62.8353 15.4783C62.1968 15.3238 61.6716 15.1642 61.2597 14.9994C60.858 14.8347 60.5079 14.5824 60.2092 14.2425C59.9209 13.9027 59.7767 13.4444 59.7767 12.8677C59.7767 12.394 59.9106 11.9615 60.1783 11.5701C60.4564 11.1788 60.8477 10.8699 61.3523 10.6433C61.8672 10.4167 62.4697 10.3035 63.1597 10.3035C64.1792 10.3035 64.9928 10.5609 65.6003 11.0758C66.2079 11.5804 66.5426 12.2653 66.6044 13.1303H64.5345C64.5036 12.7905 64.3594 12.5227 64.102 12.3271C63.8548 12.1211 63.5201 12.0181 63.0979 12.0181C62.7066 12.0181 62.4028 12.0902 62.1865 12.2344C61.9805 12.3786 61.8775 12.5794 61.8775 12.8368C61.8775 13.1252 62.0217 13.3466 62.3101 13.5011C62.5984 13.6452 63.0464 13.7946 63.654 13.949C64.2719 14.1035 64.7816 14.2631 65.1833 14.4279C65.5849 14.5927 65.9299 14.8501 66.2182 15.2003C66.5169 15.5401 66.6714 15.9932 66.6817 16.5596C66.6817 17.0539 66.5426 17.4968 66.2646 17.8881C65.9968 18.2794 65.6055 18.5884 65.0906 18.8149C64.586 19.0312 63.9938 19.1393 63.3141 19.1393ZM69.5537 9.42304C69.1726 9.42304 68.8534 9.30454 68.5959 9.06774C68.3488 8.82054 68.2252 8.51674 68.2252 8.15634C68.2252 7.79584 68.3488 7.49724 68.5959 7.26034C68.8534 7.01324 69.1726 6.88965 69.5537 6.88965C69.9347 6.88965 70.2488 7.01324 70.4959 7.26034C70.7534 7.49724 70.8821 7.79584 70.8821 8.15634C70.8821 8.51674 70.7534 8.82054 70.4959 9.06774C70.2488 9.30454 69.9347 9.42304 69.5537 9.42304ZM70.6195 10.4425V19.0003H68.4569V10.4425H70.6195ZM76.1083 10.3035C76.7468 10.3035 77.308 10.4322 77.792 10.6896C78.276 10.9368 78.6571 11.2612 78.9351 11.6628V10.4425H81.1132V19.0621C81.1132 19.8551 80.9536 20.5605 80.6343 21.1784C80.3151 21.8066 79.8362 22.3009 79.1977 22.6613C78.5592 23.032 77.7869 23.2174 76.8806 23.2174C75.6654 23.2174 74.6665 22.9342 73.8838 22.3678C73.1115 21.8014 72.6738 21.029 72.5708 20.0507H74.718C74.8313 20.442 75.0733 20.751 75.444 20.9776C75.8251 21.2144 76.2833 21.3328 76.8188 21.3328C77.447 21.3328 77.9568 21.1423 78.3481 20.7613C78.7395 20.3906 78.9351 19.8242 78.9351 19.0621V17.7336C78.6571 18.1353 78.2709 18.4699 77.7766 18.7377C77.2926 19.0054 76.7365 19.1393 76.1083 19.1393C75.3874 19.1393 74.7283 18.954 74.131 18.5832C73.5337 18.2125 73.06 17.6924 72.7099 17.023C72.37 16.3434 72.2001 15.5658 72.2001 14.6905C72.2001 13.8255 72.37 13.0582 72.7099 12.3888C73.06 11.7195 73.5286 11.2046 74.1156 10.8441C74.7129 10.4837 75.3771 10.3035 76.1083 10.3035ZM78.9351 14.7214C78.9351 14.1962 78.8321 13.7482 78.6262 13.3775C78.4202 12.9964 78.1422 12.7081 77.792 12.5124C77.4419 12.3065 77.066 12.2035 76.6644 12.2035C76.2627 12.2035 75.892 12.3013 75.5522 12.497C75.2123 12.6926 74.9343 12.981 74.718 13.362C74.512 13.7328 74.4091 14.1756 74.4091 14.6905C74.4091 15.2054 74.512 15.6585 74.718 16.0499C74.9343 16.4309 75.2123 16.7244 75.5522 16.9304C75.9023 17.1363 76.273 17.2393 76.6644 17.2393C77.066 17.2393 77.4419 17.1415 77.792 16.9458C78.1422 16.7398 78.4202 16.4515 78.6262 16.0808C78.8321 15.6997 78.9351 15.2466 78.9351 14.7214ZM88.0449 10.3189C88.6937 10.3189 89.2704 10.4631 89.775 10.7514C90.2796 11.0295 90.671 11.4466 90.949 12.0027C91.2374 12.5485 91.3815 13.2076 91.3815 13.9799V19.0003H89.2189V14.2734C89.2189 13.5937 89.049 13.0737 88.7092 12.7132C88.3693 12.3425 87.9059 12.1571 87.3189 12.1571C86.7216 12.1571 86.2479 12.3425 85.8978 12.7132C85.5579 13.0737 85.388 13.5937 85.388 14.2734V19.0003H83.2254V7.56934H85.388V11.5084C85.666 11.1376 86.0368 10.8493 86.5002 10.6433C86.9636 10.427 87.4785 10.3189 88.0449 10.3189ZM95.956 12.2189V16.3588C95.956 16.6472 96.023 16.8583 96.157 16.9921C96.301 17.1157 96.538 17.1775 96.867 17.1775H97.871V19.0003H96.512C94.6893 19.0003 93.7779 18.1147 93.7779 16.3434V12.2189H92.7584V10.4425H93.7779V8.32624H95.956V10.4425H97.871V12.2189H95.956ZM102.702 19.1393C102.001 19.1393 101.373 19.0157 100.817 18.7686C100.261 18.5111 99.818 18.1661 99.489 17.7336C99.169 17.3011 98.994 16.8222 98.964 16.297H101.142C101.183 16.6266 101.342 16.8995 101.62 17.1157C101.909 17.332 102.264 17.4401 102.686 17.4401C103.098 17.4401 103.418 17.3577 103.644 17.193C103.881 17.0282 103.999 16.8171 103.999 16.5596C103.999 16.2816 103.855 16.0756 103.567 15.9417C103.289 15.7976 102.841 15.6431 102.223 15.4783C101.584 15.3238 101.059 15.1642 100.647 14.9994C100.246 14.8347 99.896 14.5824 99.597 14.2425C99.309 13.9027 99.164 13.4444 99.164 12.8677C99.164 12.394 99.298 11.9615 99.566 11.5701C99.844 11.1788 100.235 10.8699 100.74 10.6433C101.255 10.4167 101.857 10.3035 102.547 10.3035C103.567 10.3035 104.38 10.5609 104.988 11.0758C105.596 11.5804 105.93 12.2653 105.992 13.1303H103.922C103.891 12.7905 103.747 12.5227 103.49 12.3271C103.242 12.1211 102.908 12.0181 102.486 12.0181C102.094 12.0181 101.79 12.0902 101.574 12.2344C101.368 12.3786 101.265 12.5794 101.265 12.8368C101.265 13.1252 101.409 13.3466 101.698 13.5011C101.986 13.6452 102.434 13.7946 103.042 13.949C103.66 14.1035 104.169 14.2631 104.571 14.4279C104.973 14.5927 105.318 14.8501 105.606 15.2003C105.905 15.5401 106.059 15.9932 106.069 16.5596C106.069 17.0539 105.93 17.4968 105.652 17.8881C105.384 18.2794 104.993 18.5884 104.478 18.8149C103.974 19.0312 103.381 19.1393 102.702 19.1393Z" fill="#7F5DF6"></path></svg>