<svg xmlns:xlink="http://www.w3.org/1999/xlink" width="111" height="29" viewBox="0 0 111 29" fill="none" xmlns="http://www.w3.org/2000/svg"><title fill="none">Connect</title><path d="M0.178711 10.1916C0.178711 5.08739 8.502 0.929688 18.7352 0.929688C28.9685 0.929688 37.1018 4.99399 37.2824 10.0219V19.5158C37.1003 14.4863 28.8486 10.4235 18.7352 10.4235C8.6218 10.4235 0.178711 14.5797 0.178711 19.6854V10.1916Z" fill="#3981F7"></path><path d="M35.4283 13.7207C35.7319 13.3673 35.9903 12.9999 36.202 12.6201V22.114C35.9903 22.4891 35.7334 22.8565 35.4283 23.2145V13.7207Z" fill="#3981F7"></path><path d="M32.9036 15.833C33.3815 15.5341 33.8204 15.2212 34.2205 14.8975V24.3866C33.8189 24.712 33.3799 25.028 32.9036 25.3222V15.8283" fill="#3981F7"></path><path d="M29.3561 17.5233C29.9725 17.3007 30.564 17.0547 31.1166 16.7979V26.2871C30.5593 26.5486 29.9725 26.7883 29.3561 27.0125V17.5186" fill="#3981F7"></path><path d="M24.9976 18.6864C25.7277 18.551 26.4328 18.3953 27.1131 18.2178V27.707C26.4328 27.8845 25.723 28.0448 24.9976 28.1756V18.6817" fill="#3981F7"></path><path d="M14.8669 19.0359C15.639 19.12 16.4298 19.1791 17.2314 19.2134V28.7025C16.4251 28.6682 15.6359 28.6092 14.8669 28.5251V19.0312" fill="#3981F7"></path><path d="M20.0319 19.2188C20.8382 19.1892 21.6321 19.1347 22.4057 19.0537V28.5476C21.6336 28.627 20.8398 28.683 20.0319 28.7126V19.2188Z" fill="#3981F7"></path><path d="M10.1831 18.1727C10.8587 18.3533 11.5639 18.5136 12.2908 18.6537V28.1429C11.5639 28.0043 10.8634 27.844 10.1831 27.6619V18.168" fill="#3981F7"></path><path d="M6.20911 16.7313C6.76171 16.9928 7.34541 17.2418 7.95721 17.4691V26.9583C7.34541 26.731 6.75861 26.4866 6.20911 26.2204V16.7266" fill="#3981F7"></path><path d="M3.14722 14.8115C3.53949 15.1399 3.97534 15.4559 4.44393 15.7563V25.2502C3.97534 24.9513 3.53949 24.6353 3.14722 24.3053V14.8115Z" fill="#3981F7"></path><path d="M1.21228 12.5283C1.41464 12.9081 1.6637 13.2739 1.95946 13.6335V23.1273C1.6637 22.7693 1.41464 22.4019 1.21228 22.0221V12.5283Z" fill="#3981F7"></path><path d="M108.928 13.2833V17.3837C108.928 17.6693 108.994 17.8784 109.127 18.011C109.27 18.1334 109.504 18.1946 109.831 18.1946H110.825V20H109.479C107.673 20 106.771 19.1228 106.771 17.3684V13.2833H105.761V11.5238H106.771V9.42773H108.928V11.5238H110.825V13.2833H108.928Z" fill="#3981F7"></path><path d="M96.6792 15.7615C96.6792 14.8843 96.8577 14.1193 97.2147 13.4665C97.5717 12.8035 98.0664 12.2935 98.6988 11.9365C99.3312 11.5693 100.055 11.3857 100.871 11.3857C101.922 11.3857 102.789 11.6509 103.472 12.1813C104.166 12.7015 104.63 13.4359 104.865 14.3845H102.554C102.432 14.0173 102.223 13.7317 101.927 13.5277C101.641 13.3135 101.284 13.2064 100.856 13.2064C100.244 13.2064 99.7596 13.4308 99.4026 13.8796C99.0456 14.3182 98.8671 14.9455 98.8671 15.7615C98.8671 16.5673 99.0456 17.1946 99.4026 17.6434C99.7596 18.082 100.244 18.3013 100.856 18.3013C101.723 18.3013 102.289 17.9137 102.554 17.1385H104.865C104.63 18.0565 104.166 18.7858 103.472 19.3264C102.779 19.867 101.912 20.1373 100.871 20.1373C100.055 20.1373 99.3312 19.9588 98.6988 19.6018C98.0664 19.2346 97.5717 18.7246 97.2147 18.0718C96.8577 17.4088 96.6792 16.6387 96.6792 15.7615Z" fill="#3981F7"></path><path d="M95.6666 15.5779C95.6666 15.8839 95.6462 16.1593 95.6054 16.4041H89.4089C89.4599 17.0161 89.6741 17.4955 90.0515 17.8423C90.4289 18.1891 90.893 18.3625 91.4438 18.3625C92.2394 18.3625 92.8055 18.0208 93.1421 17.3374H95.4524C95.2076 18.1534 94.7384 18.8266 94.0448 19.357C93.3512 19.8772 92.4995 20.1373 91.4897 20.1373C90.6737 20.1373 89.9393 19.9588 89.2865 19.6018C88.6439 19.2346 88.139 18.7195 87.7718 18.0565C87.4148 17.3935 87.2363 16.6285 87.2363 15.7615C87.2363 14.8843 87.4148 14.1142 87.7718 13.4512C88.1288 12.7882 88.6286 12.2782 89.2712 11.9212C89.9138 11.5642 90.6533 11.3857 91.4897 11.3857C92.2955 11.3857 93.0146 11.5591 93.647 11.9059C94.2896 12.2527 94.7843 12.7474 95.1311 13.39C95.4881 14.0224 95.6666 14.7517 95.6666 15.5779ZM93.4481 14.9659C93.4379 14.4151 93.239 13.9765 92.8514 13.6501C92.4638 13.3135 91.9895 13.1452 91.4285 13.1452C90.8981 13.1452 90.4493 13.3084 90.0821 13.6348C89.7251 13.951 89.5058 14.3947 89.4242 14.9659H93.4481Z" fill="#3981F7"></path><path d="M82.3688 11.4014C83.3786 11.4014 84.1946 11.7227 84.8168 12.3653C85.439 12.9977 85.7501 13.8851 85.7501 15.0275V20H83.6081V15.3182C83.6081 14.645 83.4398 14.1299 83.1032 13.7729C82.7666 13.4057 82.3076 13.2221 81.7262 13.2221C81.1346 13.2221 80.6654 13.4057 80.3186 13.7729C79.982 14.1299 79.8137 14.645 79.8137 15.3182V20H77.6717V11.5238H79.8137V12.5795C80.0993 12.2123 80.4614 11.9267 80.9 11.7227C81.3488 11.5085 81.8384 11.4014 82.3688 11.4014Z" fill="#3981F7"></path><path d="M72.2535 11.4014C73.2633 11.4014 74.0793 11.7227 74.7015 12.3653C75.3237 12.9977 75.6348 13.8851 75.6348 15.0275V20H73.4928V15.3182C73.4928 14.645 73.3245 14.1299 72.9879 13.7729C72.6513 13.4057 72.1923 13.2221 71.6109 13.2221C71.0193 13.2221 70.5501 13.4057 70.2033 13.7729C69.8667 14.1299 69.6984 14.645 69.6984 15.3182V20H67.5564V11.5238H69.6984V12.5795C69.984 12.2123 70.3461 11.9267 70.7847 11.7227C71.2335 11.5085 71.7231 11.4014 72.2535 11.4014Z" fill="#3981F7"></path><path d="M61.5635 20.1373C60.7475 20.1373 60.0131 19.9588 59.3603 19.6018C58.7075 19.2346 58.1924 18.7195 57.815 18.0565C57.4478 17.3935 57.2642 16.6285 57.2642 15.7615C57.2642 14.8945 57.4529 14.1295 57.8303 13.4665C58.2179 12.8035 58.7432 12.2935 59.4062 11.9365C60.0692 11.5693 60.8087 11.3857 61.6247 11.3857C62.4407 11.3857 63.1802 11.5693 63.8432 11.9365C64.5062 12.2935 65.0264 12.8035 65.4038 13.4665C65.7914 14.1295 65.9852 14.8945 65.9852 15.7615C65.9852 16.6285 65.7863 17.3935 65.3885 18.0565C65.0009 18.7195 64.4705 19.2346 63.7973 19.6018C63.1343 19.9588 62.3897 20.1373 61.5635 20.1373ZM61.5635 18.2707C61.9511 18.2707 62.3132 18.1789 62.6498 17.9953C62.9966 17.8015 63.272 17.5159 63.476 17.1385C63.68 16.7611 63.782 16.3021 63.782 15.7615C63.782 14.9557 63.5678 14.3386 63.1394 13.9102C62.7212 13.4716 62.2061 13.2523 61.5941 13.2523C60.9821 13.2523 60.467 13.4716 60.0488 13.9102C59.6408 14.3386 59.4368 14.9557 59.4368 15.7615C59.4368 16.5673 59.6357 17.1895 60.0335 17.6281C60.4415 18.0565 60.9515 18.2707 61.5635 18.2707Z" fill="#3981F7"></path><path d="M45.5355 14.6447C45.5355 13.5941 45.7701 12.6557 46.2393 11.8295C46.7187 10.9931 47.3664 10.3454 48.1824 9.88642C49.0086 9.41722 49.9317 9.18262 50.9517 9.18262C52.1451 9.18262 53.1906 9.48862 54.0882 10.1006C54.9858 10.7126 55.6131 11.5592 55.9701 12.6404H53.5068C53.262 12.1304 52.9152 11.7479 52.4664 11.4929C52.0278 11.2379 51.5178 11.1104 50.9364 11.1104C50.3142 11.1104 49.7583 11.2583 49.2687 11.5541C48.7893 11.8397 48.4119 12.2477 48.1365 12.7781C47.8713 13.3085 47.7387 13.9307 47.7387 14.6447C47.7387 15.3485 47.8713 15.9707 48.1365 16.5113C48.4119 17.0417 48.7893 17.4548 49.2687 17.7506C49.7583 18.0362 50.3142 18.179 50.9364 18.179C51.5178 18.179 52.0278 18.0515 52.4664 17.7965C52.9152 17.5313 53.262 17.1437 53.5068 16.6337H55.9701C55.6131 17.7251 54.9858 18.5768 54.0882 19.1888C53.2008 19.7906 52.1553 20.0915 50.9517 20.0915C49.9317 20.0915 49.0086 19.862 48.1824 19.403C47.3664 18.9338 46.7187 18.2861 46.2393 17.4599C45.7701 16.6337 45.5355 15.6953 45.5355 14.6447Z" fill="#3981F7"></path></svg>