<svg xmlns:xlink="http://www.w3.org/1999/xlink" width="146" height="29" viewBox="0 0 146 29" fill="none" xmlns="http://www.w3.org/2000/svg"><title fill="none">TweetBinder</title><path d="M0.178711 10.1916C0.178711 5.08739 8.502 0.929688 18.7352 0.929688C28.9685 0.929688 37.1018 4.99399 37.2824 10.0219V19.5158C37.1003 14.4863 28.8486 10.4235 18.7352 10.4235C8.6218 10.4235 0.178711 14.5797 0.178711 19.6854V10.1916Z" fill="#3981F7"></path><path d="M35.4283 13.7207C35.7319 13.3673 35.9903 12.9999 36.202 12.6201V22.114C35.9903 22.4891 35.7334 22.8565 35.4283 23.2145V13.7207Z" fill="#3981F7"></path><path d="M32.9036 15.833C33.3815 15.5341 33.8204 15.2212 34.2205 14.8975V24.3866C33.8189 24.712 33.3799 25.028 32.9036 25.3222V15.8283" fill="#3981F7"></path><path d="M29.3561 17.5233C29.9725 17.3007 30.564 17.0547 31.1166 16.7979V26.2871C30.5593 26.5486 29.9725 26.7883 29.3561 27.0125V17.5186" fill="#3981F7"></path><path d="M24.9976 18.6864C25.7277 18.551 26.4328 18.3953 27.1131 18.2178V27.707C26.4328 27.8845 25.723 28.0448 24.9976 28.1756V18.6817" fill="#3981F7"></path><path d="M14.8669 19.0359C15.639 19.12 16.4298 19.1791 17.2314 19.2134V28.7025C16.4251 28.6682 15.6359 28.6092 14.8669 28.5251V19.0312" fill="#3981F7"></path><path d="M20.0319 19.2188C20.8382 19.1892 21.6321 19.1347 22.4057 19.0537V28.5476C21.6336 28.627 20.8398 28.683 20.0319 28.7126V19.2188Z" fill="#3981F7"></path><path d="M10.1831 18.1727C10.8587 18.3533 11.5639 18.5136 12.2908 18.6537V28.1429C11.5639 28.0043 10.8634 27.844 10.1831 27.6619V18.168" fill="#3981F7"></path><path d="M6.20911 16.7313C6.76171 16.9928 7.34541 17.2418 7.95721 17.4691V26.9583C7.34541 26.731 6.75861 26.4866 6.20911 26.2204V16.7266" fill="#3981F7"></path><path d="M3.14722 14.8115C3.53949 15.1399 3.97534 15.4559 4.44393 15.7563V25.2502C3.97534 24.9513 3.53949 24.6353 3.14722 24.3053V14.8115Z" fill="#3981F7"></path><path d="M1.21228 12.5283C1.41464 12.9081 1.6637 13.2739 1.95946 13.6335V23.1273C1.6637 22.7693 1.41464 22.4019 1.21228 22.0221V12.5283Z" fill="#3981F7"></path><path d="M52.8652 8.82849V10.574H49.992V19.6107H47.8293V10.574H44.9561V8.82849H52.8652ZM66.3066 11.0529L63.8042 19.6107H61.4716L59.9114 13.6326L58.3513 19.6107H56.0033L53.4853 11.0529H55.6789L57.1927 17.5717L58.8301 11.0529H61.1163L62.7228 17.5562L64.2367 11.0529H66.3066ZM75.4321 15.1464C75.4321 15.4554 75.4115 15.7334 75.3703 15.9806H69.1142C69.1657 16.5985 69.3819 17.0825 69.763 17.4326C70.144 17.7828 70.6126 17.9578 71.1687 17.9578C71.9719 17.9578 72.5435 17.6128 72.8833 16.9229H75.2159C74.9687 17.7467 74.495 18.4264 73.7947 18.9619C73.0944 19.4871 72.2345 19.7497 71.215 19.7497C70.3911 19.7497 69.6497 19.5695 68.9906 19.2091C68.3418 18.8383 67.832 18.3183 67.4613 17.6489C67.1009 16.9795 66.9206 16.2071 66.9206 15.3318C66.9206 14.4461 67.1009 13.6686 67.4613 12.9993C67.8217 12.3299 68.3264 11.815 68.9751 11.4545C69.6239 11.0941 70.3705 10.9139 71.215 10.9139C72.0286 10.9139 72.7546 11.0889 73.3931 11.4391C74.0419 11.7892 74.5413 12.2887 74.8915 12.9375C75.2519 13.576 75.4321 14.3123 75.4321 15.1464ZM73.1923 14.5285C73.182 13.9724 72.9811 13.5296 72.5898 13.2001C72.1985 12.8602 71.7196 12.6903 71.1532 12.6903C70.6177 12.6903 70.1646 12.8551 69.7938 13.1846C69.4334 13.5039 69.212 13.9518 69.1296 14.5285H73.1923ZM84.966 15.1464C84.966 15.4554 84.9454 15.7334 84.9042 15.9806H78.6481C78.6995 16.5985 78.9158 17.0825 79.2968 17.4326C79.6779 17.7828 80.1464 17.9578 80.7025 17.9578C81.5058 17.9578 82.0774 17.6128 82.4172 16.9229H84.7497C84.5026 17.7467 84.0289 18.4264 83.3286 18.9619C82.6283 19.4871 81.7684 19.7497 80.7489 19.7497C79.925 19.7497 79.1836 19.5695 78.5245 19.2091C77.8757 18.8383 77.3659 18.3183 76.9952 17.6489C76.6348 16.9795 76.4545 16.2071 76.4545 15.3318C76.4545 14.4461 76.6348 13.6686 76.9952 12.9993C77.3556 12.3299 77.8602 11.815 78.509 11.4545C79.1578 11.0941 79.9044 10.9139 80.7489 10.9139C81.5624 10.9139 82.2885 11.0889 82.927 11.4391C83.5757 11.7892 84.0751 12.2887 84.4253 12.9375C84.7858 13.576 84.966 14.3123 84.966 15.1464ZM82.7261 14.5285C82.7158 13.9724 82.515 13.5296 82.1237 13.2001C81.7324 12.8602 81.2535 12.6903 80.6871 12.6903C80.1516 12.6903 79.6985 12.8551 79.3277 13.1846C78.9673 13.5039 78.7459 13.9518 78.6635 14.5285H82.7261ZM89.0624 12.8293V16.9692C89.0624 17.2576 89.1294 17.4687 89.2633 17.6026C89.4074 17.7261 89.6443 17.7879 89.9738 17.7879H90.9779V19.6107H89.6185C87.7958 19.6107 86.8844 18.7251 86.8844 16.9538V12.8293H85.8648V11.0529H86.8844V8.93659H89.0624V11.0529H90.9779V12.8293H89.0624ZM102.331 14.0806C102.939 14.1938 103.438 14.4976 103.829 14.992C104.221 15.4863 104.416 16.0527 104.416 16.6912C104.416 17.2679 104.272 17.7776 103.984 18.2204C103.706 18.653 103.299 18.9928 102.763 19.24C102.228 19.4871 101.595 19.6107 100.863 19.6107H96.2144V8.82849H100.663C101.394 8.82849 102.022 8.94689 102.547 9.18379C103.083 9.42059 103.484 9.75019 103.752 10.1724C104.03 10.5946 104.169 11.0735 104.169 11.609C104.169 12.2372 103.999 12.7624 103.659 13.1846C103.33 13.6068 102.887 13.9055 102.331 14.0806ZM98.3764 13.2773H100.354C100.869 13.2773 101.265 13.164 101.543 12.9375C101.821 12.7006 101.96 12.3659 101.96 11.9334C101.96 11.5009 101.821 11.1662 101.543 10.9293C101.265 10.6925 100.869 10.574 100.354 10.574H98.3764V13.2773ZM100.554 17.8497C101.08 17.8497 101.486 17.7261 101.775 17.479C102.073 17.2318 102.223 16.8817 102.223 16.4286C102.223 15.9651 102.068 15.6047 101.759 15.3472C101.45 15.0795 101.033 14.9456 100.508 14.9456H98.3764V17.8497H100.554ZM107.237 10.0334C106.856 10.0334 106.536 9.91489 106.279 9.67809C106.032 9.43089 105.908 9.12709 105.908 8.76669C105.908 8.40619 106.032 8.10759 106.279 7.87069C106.536 7.62358 106.856 7.5 107.237 7.5C107.618 7.5 107.932 7.62358 108.179 7.87069C108.436 8.10759 108.565 8.40619 108.565 8.76669C108.565 9.12709 108.436 9.43089 108.179 9.67809C107.932 9.91489 107.618 10.0334 107.237 10.0334ZM108.303 11.0529V19.6107H106.14V11.0529H108.303ZM115.182 10.9293C116.201 10.9293 117.025 11.2537 117.653 11.9025C118.281 12.541 118.595 13.4369 118.595 14.5903V19.6107H116.433V14.8838C116.433 14.2041 116.263 13.6841 115.923 13.3236C115.583 12.9529 115.12 12.7675 114.533 12.7675C113.935 12.7675 113.462 12.9529 113.112 13.3236C112.772 13.6841 112.602 14.2041 112.602 14.8838V19.6107H110.439V11.0529H112.602V12.1188C112.89 11.748 113.256 11.4597 113.699 11.2537C114.152 11.0374 114.646 10.9293 115.182 10.9293ZM120.096 15.3009C120.096 14.4359 120.266 13.6686 120.606 12.9993C120.956 12.3299 121.429 11.815 122.027 11.4545C122.624 11.0941 123.288 10.9139 124.019 10.9139C124.576 10.9139 125.106 11.0374 125.611 11.2846C126.115 11.5215 126.517 11.8407 126.815 12.2423V8.17969H129.009V19.6107H126.815V18.344C126.548 18.7662 126.172 19.1061 125.688 19.3635C125.204 19.621 124.642 19.7497 124.004 19.7497C123.283 19.7497 122.624 19.5644 122.027 19.1936C121.429 18.8229 120.956 18.3028 120.606 17.6334C120.266 16.9538 120.096 16.1762 120.096 15.3009ZM126.831 15.3318C126.831 14.8066 126.728 14.3586 126.522 13.9879C126.316 13.6068 126.038 13.3185 125.688 13.1228C125.338 12.9169 124.962 12.8139 124.56 12.8139C124.158 12.8139 123.788 12.9117 123.448 13.1074C123.108 13.303 122.83 13.5914 122.614 13.9724C122.408 14.3432 122.305 14.786 122.305 15.3009C122.305 15.8158 122.408 16.2689 122.614 16.6603C122.83 17.0413 123.108 17.3348 123.448 17.5408C123.798 17.7467 124.169 17.8497 124.56 17.8497C124.962 17.8497 125.338 17.7519 125.688 17.5562C126.038 17.3502 126.316 17.0619 126.522 16.6912C126.728 16.3101 126.831 15.857 126.831 15.3318ZM139.076 15.1464C139.076 15.4554 139.056 15.7334 139.015 15.9806H132.759C132.81 16.5985 133.026 17.0825 133.407 17.4326C133.788 17.7828 134.257 17.9578 134.813 17.9578C135.616 17.9578 136.188 17.6128 136.528 16.9229H138.86C138.613 17.7467 138.139 18.4264 137.439 18.9619C136.739 19.4871 135.879 19.7497 134.859 19.7497C134.035 19.7497 133.294 19.5695 132.635 19.2091C131.986 18.8383 131.476 18.3183 131.106 17.6489C130.745 16.9795 130.565 16.2071 130.565 15.3318C130.565 14.4461 130.745 13.6686 131.106 12.9993C131.466 12.3299 131.971 11.815 132.619 11.4545C133.268 11.0941 134.015 10.9139 134.859 10.9139C135.673 10.9139 136.399 11.0889 137.037 11.4391C137.686 11.7892 138.186 12.2887 138.536 12.9375C138.896 13.576 139.076 14.3123 139.076 15.1464ZM136.837 14.5285C136.826 13.9724 136.625 13.5296 136.234 13.2001C135.843 12.8602 135.364 12.6903 134.798 12.6903C134.262 12.6903 133.809 12.8551 133.438 13.1846C133.078 13.5039 132.856 13.9518 132.774 14.5285H136.837ZM142.818 12.3814C143.096 11.9282 143.456 11.5729 143.899 11.3155C144.352 11.058 144.867 10.9293 145.444 10.9293V13.2001H144.872C144.192 13.2001 143.678 13.3597 143.327 13.6789C142.988 13.9982 142.818 14.5543 142.818 15.3472V19.6107H140.655V11.0529H142.818V12.3814Z" fill="#3981F7"></path></svg>